PathFileType	4	(x/y/z)	S08_M20_T01
DataRate	CameraRate	NumFrames	NumMarkers	Units	OrigDataRate	OrigDataStartFrame	OrigNumFrames
240	240	8	51	mm	240	190	504
Frame#	Time	Sternum			R.Acromium			L.Acromium			Top.Head			R.ASIS			L.ASIS			R.PSIS			L.PSIS			R.Great.Tro			L.Great.Tro			R.Iliac.Crest			L.Iliac.Crest			V.Sacral			R.Thigh.Upper.Post			R.Thigh.Lower.Ant			R.Thigh.Lower.Post			R.Thigh.Upper.Ant			R.Knee.Lat			R.Knee.Med			R.Shank.Upper.Post			R.Shank.Lower.Ant			R.Shank.Lower.Post			R.Shank.Upper.Ant			R.Ankle.Lat			R.Ankle.Med			R.Heel.Upper			R.Heel.Med			R.Heel.Lat			R.Toe.Lat			R.Toe.Med			R.Toe.Tip			L.Thigh.Upper.Post			L.Thigh.Lower.Ant			L.Thigh.Lower.Post			L.Thigh.Upper.Ant			L.Knee.Lat			L.Knee.Med			L.Shank.Upper.Post			L.Shank.Lower.Ant			L.Shank.Lower.Post			L.Shank.Upper.Ant			L.Ankle.Lat			L.Ankle.Med			L.Heel.Upper			L.Heel.Med			L.Heel.Lat			L.Toe.Lat			L.Toe.Med			L.Toe.Tip			Cervical.Spine			Back			
		X1	Y1	Z1	X2	Y2	Z2	X3	Y3	Z3	X4	Y4	Z4	X5	Y5	Z5	X6	Y6	Z6	X7	Y7	Z7	X8	Y8	Z8	X9	Y9	Z9	X10	Y10	Z10	X11	Y11	Z11	X12	Y12	Z12	X13	Y13	Z13	X14	Y14	Z14	X15	Y15	Z15	X16	Y16	Z16	X17	Y17	Z17	X18	Y18	Z18	X19	Y19	Z19	X20	Y20	Z20	X21	Y21	Z21	X22	Y22	Z22	X23	Y23	Z23	X24	Y24	Z24	X25	Y25	Z25	X26	Y26	Z26	X27	Y27	Z27	X28	Y28	Z28	X29	Y29	Z29	X30	Y30	Z30	X31	Y31	Z31	X32	Y32	Z32	X33	Y33	Z33	X34	Y34	Z34	X35	Y35	Z35	X36	Y36	Z36	X37	Y37	Z37	X38	Y38	Z38	X39	Y39	Z39	X40	Y40	Z40	X41	Y41	Z41	X42	Y42	Z42	X43	Y43	Z43	X44	Y44	Z44	X45	Y45	Z45	X46	Y46	Z46	X47	Y47	Z47	X48	Y48	Z48	X49	Y49	Z49	X50	Y50	Z50	X51	Y51	Z51	

190	0.7875	-501.29	1205.4	295.12	-624.17	1431.7	478.03	-639.38	1469	144.7	-622.76	1756.8	328.26	-503.37	995.75	401.84	-518.42	980.4	169.66	-711.08	1015.4	338.87	-710.43	1016.6	246.4	-552.56	892.65	480.24	-630.6	875.92	114.04	-600.26	1063.6	452.85	-612.69	1063.6	143.6	-729.16	976.32	294.46	-503.88	693.8	461.29	-402.79	628.9	412.75	-469.34	612.77	435.78	-431.85	717.13	438.27	-405.05	526.65	405.47	-447.89	521.42	286.45	-440.39	331.99	416.41	-374.64	279.72	385.59	-431.35	255.65	406.11	-383.12	356.22	397.15	-416.6	90.811	361.76	-390.75	114.75	284.52	-461.78	62.848	308.84	-446.05	37.351	281.8	-455.69	37.458	342.77	NaN	NaN	NaN	-263.39	56.686	276.36	-204.01	84.2	324.35	-696.61	683.04	135.07	-628.06	576.65	143.06	-697.12	592.14	147.73	-627.08	663.88	126.11	-711.43	494.2	159.29	-693.3	482.67	283.22	-871.4	402.84	160.16	-884.77	292.47	174.89	-924.91	353	176.24	-833.78	349.42	161.38	-1028.5	211	187.12	-1005.2	201.38	272.13	-1075	244.79	235.92	-1094	221.82	271.59	-1097.4	221.88	207.02	-1023	65.938	192.59	-1000.6	68.929	306.85	-954.58	35.727	264.13	-702.61	1492.7	306.04	-740.53	1205.5	306.14
191	0.79167	-495.64	1206.3	295.45	-618.65	1432.4	478.28	-633.86	1469.8	145.01	-617.2	1757.5	328.89	-497.79	996.72	402.47	-512.63	980.93	170.31	-705.49	1016.1	338.98	-704.73	1017	246.49	-547.13	893.51	480.78	-624.24	875.89	114.59	-594.87	1064.5	453.14	-606.79	1064	143.86	-723.46	976.85	294.6	-499	694.36	461.87	-398.18	629.03	413.29	-464.81	613.17	436.32	-426.88	717.35	438.76	-400.95	526.65	405.85	-443.7	521.82	286.77	-437.73	332.23	416.7	-372.42	279.47	385.74	-429.28	255.82	406.32	-380.3	356.02	397.34	-416.06	90.906	361.83	-390.13	114.78	284.65	-461.51	63.089	308.96	-445.92	37.57	281.87	-455.51	37.645	342.84	NaN	NaN	NaN	-263.12	55.845	276.19	-203.46	82.924	324.11	-688.27	681.93	135.33	-618.64	576.25	143.15	-687.83	590.99	147.81	-618.49	663.57	126.36	-701.05	493.35	158.92	-682.88	481.57	282.95	-861.44	403.76	159.56	-876.12	293.53	174.4	-915.53	354.58	175.63	-824.44	349.93	160.92	-1020.6	214.31	186.17	-997.7	204.26	271.55	-1065.6	249.72	234.8	-1085.6	227.49	270.5	-1088.8	227.56	205.91	-1019.5	68.831	192.09	-997.25	71.408	306.31	-952.65	35.331	263.81	-697.14	1493.3	306.42	-734.83	1206.2	306.27
192	0.79583	-490.05	1207.2	295.76	-613.15	1433.2	478.51	-628.38	1470.7	145.3	-611.65	1758.2	329.5	-492.25	997.68	403.08	-506.92	981.51	170.95	-699.94	1016.8	339.17	-699.1	1017.5	246.64	-541.72	894.32	481.33	-617.96	875.9	115.18	-589.49	1065.4	453.44	-601.01	1064.5	144.16	-717.82	977.39	294.79	-494.28	694.88	462.42	-393.75	629.08	413.83	-460.46	613.53	436.82	-422.04	717.49	439.23	-397.04	526.61	406.21	-439.72	522.17	287.08	-435.24	332.46	416.92	-370.34	279.21	385.85	-427.37	255.97	406.47	-377.64	355.82	397.52	-415.59	91.006	361.87	-389.57	114.82	284.73	-461.27	63.302	309.06	-445.81	37.761	281.93	-455.36	37.813	342.9	NaN	NaN	NaN	-262.9	55.081	276	-202.97	81.77	323.86	-679.88	680.87	135.59	-609.18	575.93	143.24	-678.48	589.89	147.88	-609.86	663.32	126.59	-690.57	492.57	158.55	-672.36	480.53	282.68	-851.33	404.71	158.95	-867.31	294.64	173.92	-905.99	356.16	175.01	-814.95	350.48	160.47	-1012.4	217.6	185.24	-989.93	207.15	270.97	-1056	254.57	233.7	-1076.8	233.08	269.43	-1079.8	233.17	204.83	-1015.6	71.826	191.59	-993.6	73.985	305.74	-950.5	35.026	263.45	-691.7	1494.1	306.78	-729.18	1206.8	306.44
193	0.8	-484.51	1208.1	296.05	-607.68	1434	478.73	-622.95	1471.5	145.56	-606.11	1759	330.1	-486.72	998.63	403.66	-501.28	982.13	171.55	-694.43	1017.5	339.42	-693.54	1018	246.85	-536.32	895.1	481.88	-611.76	875.97	115.79	-584.09	1066.3	453.76	-595.34	1065	144.48	-712.23	977.94	295.06	-489.71	695.37	462.91	-389.47	629.06	414.35	-456.29	613.85	437.27	-417.33	717.56	439.68	-393.3	526.54	406.54	-435.95	522.49	287.36	-432.92	332.67	417.09	-368.4	278.94	385.94	-425.59	256.12	406.58	-375.13	355.62	397.68	-415.17	91.113	361.9	-389.08	114.86	284.79	-461.07	63.489	309.14	-445.72	37.925	281.97	-455.23	37.962	342.94	NaN	NaN	NaN	-262.72	54.388	275.81	-202.54	80.729	323.6	-671.46	679.88	135.83	-599.68	575.69	143.32	-669.07	588.88	147.94	-601.2	663.14	126.81	-680	491.87	158.18	-661.74	479.57	282.43	-841.06	405.66	158.35	-858.34	295.8	173.47	-896.27	357.75	174.4	-805.29	351.06	160.03	-1004	220.87	184.32	-981.94	210.03	270.41	-1046.2	259.32	232.62	-1067.8	238.58	268.39	-1070.6	238.68	203.78	-1011.4	74.908	191.08	-989.64	76.646	305.16	-948.1	34.835	263.06	-686.29	1494.8	307.13	-723.57	1207.5	306.63
194	0.80417	-479.03	1209.1	296.31	-602.24	1434.8	478.93	-617.57	1472.4	145.8	-600.58	1759.7	330.69	-481.23	999.57	404.22	-495.73	982.78	172.13	-688.96	1018.2	339.74	-688.06	1018.6	247.13	-530.94	895.85	482.44	-605.63	876.08	116.42	-578.69	1067.2	454.1	-589.78	1065.5	144.83	-706.7	978.49	295.39	-485.28	695.84	463.37	-385.36	628.97	414.85	-452.3	614.14	437.68	-412.74	717.57	440.09	-389.75	526.44	406.86	-432.37	522.78	287.62	-430.75	332.86	417.21	-366.6	278.66	386	-423.95	256.26	406.63	-372.79	355.41	397.83	-414.8	91.225	361.91	-388.65	114.9	284.81	-460.89	63.651	309.21	-445.64	38.064	282.01	-455.11	38.094	342.98	NaN	NaN	NaN	-262.56	53.763	275.61	-202.16	79.793	323.33	-663	678.96	136.07	-590.16	575.53	143.38	-659.6	587.95	147.97	-592.52	663.04	127.01	-669.36	491.25	157.81	-651.04	478.7	282.19	-830.67	406.63	157.75	-849.22	297	173.04	-886.39	359.34	173.77	-795.49	351.68	159.6	-995.35	224.11	183.42	-973.73	212.88	269.86	-1036.2	263.95	231.58	-1058.5	243.96	267.39	-1061.2	244.08	202.76	-1007	78.06	190.56	-985.35	79.374	304.55	-945.41	34.786	262.63	-680.9	1495.6	307.45	-718.02	1208.3	306.85
195	0.80833	-473.6	1210	296.54	-596.81	1435.7	479.11	-612.25	1473.2	146.02	-595.06	1760.5	331.26	-475.75	1000.5	404.74	-490.24	983.47	172.68	-683.53	1018.9	340.12	-682.63	1019.1	247.46	-525.57	896.56	482.99	-599.58	876.24	117.08	-573.26	1068	454.45	-584.32	1066	145.21	-701.22	979.05	295.79	-480.98	696.29	463.77	-381.41	628.84	415.33	-448.48	614.41	438.05	-408.28	717.54	440.49	-386.37	526.32	407.15	-428.97	523.03	287.86	-428.75	333.05	417.28	-364.92	278.38	386.04	-422.45	256.4	406.64	-370.6	355.2	397.97	-414.49	91.343	361.91	-388.26	114.94	284.81	-460.75	63.793	309.26	-445.57	38.182	282.04	-455.01	38.213	343.01	NaN	NaN	NaN	-262.43	53.2	275.41	-201.84	78.952	323.06	-654.52	678.11	136.29	-580.61	575.46	143.44	-650.09	587.13	147.99	-583.84	663.02	127.2	-658.65	490.72	157.45	-640.29	477.92	281.97	-820.14	407.61	157.15	-839.94	298.24	172.62	-876.37	360.93	173.15	-785.55	352.33	159.18	-986.54	227.31	182.54	-965.31	215.72	269.32	-1025.9	268.46	230.58	-1049	249.2	266.42	-1051.5	249.34	201.77	-1002.2	81.268	190.04	-980.71	82.156	303.93	-942.4	34.901	262.17	-675.54	1496.3	307.76	-712.52	1209	307.1
196	0.8125	-468.21	1210.9	296.75	-591.4	1436.6	479.29	-606.97	1474.1	146.22	-589.55	1761.3	331.81	-470.3	1001.4	405.23	-484.82	984.18	173.2	-678.14	1019.6	340.55	-677.27	1019.6	247.84	-520.22	897.25	483.53	-593.6	876.45	117.75	-567.82	1068.9	454.81	-578.96	1066.6	145.61	-695.79	979.62	296.25	-476.81	696.73	464.14	-377.6	628.66	415.79	-444.81	614.66	438.38	-403.94	717.46	440.86	-383.15	526.18	407.42	-425.74	523.26	288.07	-426.89	333.22	417.3	-363.37	278.1	386.05	-421.08	256.53	406.61	-368.56	355	398.1	-414.22	91.467	361.9	-387.92	114.97	284.78	-460.62	63.916	309.3	-445.51	38.281	282.06	-454.93	38.319	343.03	NaN	NaN	NaN	-262.33	52.696	275.21	-201.55	78.196	322.79	-646.01	677.36	136.5	-571.04	575.48	143.47	-640.55	586.41	147.98	-575.15	663.08	127.38	-647.89	490.3	157.1	-629.48	477.26	281.77	-809.5	408.61	156.55	-830.52	299.52	172.22	-866.21	362.51	172.53	-775.47	353.01	158.77	-977.55	230.47	181.69	-956.69	218.52	268.78	-1015.5	272.82	229.62	-1039.2	254.29	265.49	-1041.7	254.44	200.82	-997.05	84.517	189.5	-975.72	84.976	303.3	-939.02	35.203	261.67	-670.21	1497.1	308.06	-707.06	1209.8	307.39
197	0.81667	-462.88	1211.8	296.93	-586	1437.4	479.45	-601.74	1474.9	146.4	-584.05	1762.1	332.33	-464.87	1002.3	405.69	-479.46	984.93	173.68	-672.78	1020.3	341.03	-671.97	1020.1	248.28	-514.88	897.93	484.07	-587.71	876.7	118.43	-562.36	1069.7	455.18	-573.7	1067.1	146.03	-690.4	980.21	296.76	-472.76	697.17	464.47	-373.93	628.44	416.22	-441.28	614.89	438.67	-399.72	717.36	441.2	-380.1	526.02	407.68	-422.66	523.46	288.26	-425.17	333.39	417.28	-361.94	277.81	386.06	-419.83	256.67	406.55	-366.65	354.8	398.22	-414	91.598	361.89	-387.62	115.01	284.74	-460.51	64.024	309.33	-445.47	38.363	282.08	-454.86	38.415	343.04	NaN	NaN	NaN	-262.24	52.244	275.01	-201.31	77.517	322.53	-637.48	676.68	136.69	-561.47	575.6	143.49	-630.97	585.79	147.96	-566.47	663.23	127.53	-637.08	489.97	156.76	-618.63	476.7	281.59	-798.76	409.62	155.97	-820.95	300.83	171.84	-855.91	364.1	171.91	-765.27	353.73	158.36	-968.38	233.58	180.86	-947.87	221.29	268.25	-1005	277.04	228.7	-1029.3	259.19	264.6	-1031.7	259.36	199.91	-991.54	87.791	188.95	-970.35	87.822	302.65	-935.23	35.71	261.13	-664.89	1498	308.34	-701.64	1210.7	307.71
